<svg height="192" viewBox="0 0 192 192" width="192" xmlns="http://www.w3.org/2000/svg">
  <style>
    :root {
      --dark-color: #344C43;
      --light-color: #CEE9DD;
      --size: 192px;
      --stroke-width: 4px;
    }

    #letters {
      fill: var(--dark-color);
    }

    #outline {
      fill: none;
      stroke: var(--dark-color);
      stroke-width: var(--stroke-width);
      x: calc(var(--stroke-width) / 2);
      y: calc(var(--stroke-width) / 2);
      width : calc(var(--size) - var(--stroke-width));
      height : calc(var(--size) - var(--stroke-width));
      rx: calc(var(--size) * .2);
    }

    @media (prefers-color-scheme: dark) {
      #letters {
        fill: var(--light-color);
      }
      #outline {
        stroke: var(--light-color);
      }
    }
  </style>
  <rect id="outline"/>
  <g id="letters">
    <path d="M70.1024 132.129L77.3779 158.361H102.714L62.6556 32.7258H40.8288L0 158.361H25.3361L32.6973 132.129H70.1024ZM38.6034 111.506L51.6994 65.2562L64.4531 111.506H38.6034Z"/>
    <path d="M168.29 125.571C168.29 127.815 167.834 129.886 166.921 131.784C166.008 133.625 164.695 135.207 162.983 136.53C161.271 137.853 159.16 138.888 156.649 139.636C154.196 140.384 151.371 140.758 148.175 140.758C144.58 140.758 141.271 140.355 138.246 139.55C135.279 138.744 132.74 137.479 130.628 135.753C128.46 134.027 126.777 131.813 125.578 129.109C124.38 126.405 123.724 123.155 123.61 119.359H99.9853C99.9853 125.859 101.212 131.525 103.666 136.357C106.177 141.189 109.572 145.389 113.852 148.955C118.36 152.579 123.638 155.34 129.687 157.239C135.793 159.08 141.955 160 148.175 160C154.509 160 160.358 159.252 165.722 157.757C171.086 156.203 175.708 153.931 179.589 150.94C183.469 148.006 186.493 144.411 188.662 140.154C190.887 135.839 192 130.921 192 125.399C192 119.013 190.545 113.376 187.635 108.486C184.724 103.597 180.816 99.311 175.908 95.6294C172.656 93.386 169.089 91.4013 165.209 89.6756C161.328 87.9498 157.248 86.4829 152.969 85.2749C148.974 84.1819 145.379 83.0027 142.184 81.7371C139.045 80.4716 136.363 79.0622 134.138 77.509C131.912 76.0134 130.2 74.3164 129.002 72.4181C127.861 70.5197 127.29 68.3913 127.29 66.0328C127.29 63.7893 127.718 61.7184 128.574 59.8201C129.487 57.8642 130.8 56.1672 132.511 54.7291C134.223 53.3485 136.306 52.2843 138.76 51.5365C141.271 50.7311 144.124 50.3284 147.319 50.3284C150.8 50.3284 153.825 50.8174 156.392 51.7953C159.017 52.7157 161.214 54.01 162.983 55.6783C164.695 57.404 165.979 59.4462 166.835 61.8047C167.748 64.1632 168.262 66.7518 168.376 69.5706H191.829C191.829 63.9331 190.745 58.7559 188.576 54.0388C186.408 49.3217 183.383 45.2375 179.503 41.786C175.623 38.392 170.972 35.7458 165.551 33.8475C160.187 31.9492 154.253 31 147.747 31C141.47 31 135.65 31.8341 130.286 33.5023C124.922 35.113 120.271 37.4428 116.334 40.4916C112.397 43.5405 109.315 47.2221 107.09 51.5365C104.864 55.8508 103.751 60.6542 103.751 65.9465C103.751 70.5485 104.579 74.8054 106.234 78.7171C107.946 82.6288 110.456 86.1953 113.766 89.4167C117.076 92.6381 121.327 95.6007 126.52 98.3044C131.77 101.008 137.847 103.309 144.752 105.207C149.202 106.415 152.912 107.738 155.879 109.177C158.903 110.557 161.357 112.082 163.24 113.75C165.066 115.476 166.35 117.316 167.092 119.272C167.891 121.228 168.29 123.328 168.29 125.571Z"/>
  </g>
</svg>