<svg height="192" viewBox="0 0 192 192" width="192" xmlns="http://www.w3.org/2000/svg">
  <style>
    :root {
      --dark-color: #344C43;
      --light-color: #CEE9DD;
    }

    #letters {
      fill: var(--dark-color);
      fill-rule: evenodd;
      clip-rule: evenodd;
    }

    @media (prefers-color-scheme: dark) {
      #letters {
        fill: var(--light-color);
      }
    }
  </style>
  <path id="letters" d="M38.4 0C17.1923 0 0 17.1923 0 38.4V153.6C0 155.237 0.102446 156.85 0.301278 158.433L40.8288 33.7258H62.6556L102.714 159.361H77.3779L70.1024 133.129H32.6973L25.3361 159.361H0.429201C3.20853 177.836 19.1501 192 38.4 192H153.6C174.808 192 192 174.808 192 153.6V126.399V38.4C192 17.1923 174.808 0 153.6 0H38.4ZM192 126.399C192 120.013 190.545 114.376 187.635 109.486C184.724 104.597 180.816 100.311 175.908 96.6294C172.656 94.386 169.089 92.4013 165.209 90.6756C161.328 88.9498 157.248 87.4829 152.969 86.2749C148.974 85.1819 145.379 84.0027 142.184 82.7371C139.045 81.4716 136.363 80.0622 134.138 78.509C131.912 77.0134 130.2 75.3164 129.002 73.4181C127.861 71.5197 127.29 69.3913 127.29 67.0328C127.29 64.7893 127.718 62.7184 128.574 60.8201C129.487 58.8642 130.8 57.1672 132.511 55.7291C134.223 54.3485 136.306 53.2843 138.76 52.5365C141.271 51.7311 144.124 51.3284 147.319 51.3284C150.8 51.3284 153.825 51.8174 156.392 52.7953C159.017 53.7157 161.214 55.01 162.983 56.6783C164.695 58.404 165.979 60.4462 166.835 62.8047C167.748 65.1632 168.262 67.7518 168.376 70.5706H191.829C191.829 64.9331 190.745 59.7559 188.576 55.0388C186.408 50.3217 183.383 46.2375 179.503 42.786C175.623 39.392 170.972 36.7458 165.551 34.8475C160.187 32.9492 154.253 32 147.747 32C141.47 32 135.65 32.8341 130.286 34.5023C124.922 36.113 120.271 38.4428 116.334 41.4916C112.397 44.5405 109.315 48.2221 107.09 52.5365C104.864 56.8508 103.751 61.6542 103.751 66.9465C103.751 71.5485 104.579 75.8054 106.234 79.7171C107.946 83.6288 110.456 87.1953 113.766 90.4167C117.076 93.6381 121.327 96.6007 126.52 99.3044C131.77 102.008 137.847 104.309 144.752 106.207C149.202 107.415 152.912 108.738 155.879 110.177C158.903 111.557 161.357 113.082 163.24 114.75C165.066 116.476 166.35 118.316 167.092 120.272C167.891 122.228 168.29 124.328 168.29 126.571C168.29 128.815 167.834 130.886 166.921 132.784C166.008 134.625 164.695 136.207 162.983 137.53C161.271 138.853 159.16 139.888 156.649 140.636C154.196 141.384 151.371 141.758 148.175 141.758C144.58 141.758 141.271 141.355 138.246 140.55C135.279 139.744 132.74 138.479 130.628 136.753C128.46 135.027 126.777 132.813 125.578 130.109C124.38 127.405 123.724 124.155 123.61 120.359H99.9853C99.9853 126.859 101.212 132.525 103.666 137.357C106.177 142.189 109.572 146.389 113.852 149.955C118.36 153.579 123.638 156.34 129.687 158.239C135.793 160.08 141.955 161 148.175 161C154.509 161 160.358 160.252 165.722 158.757C171.086 157.203 175.708 154.931 179.589 151.94C183.469 149.006 186.493 145.411 188.662 141.154C190.887 136.839 192 131.921 192 126.399ZM51.6994 66.2562L38.6034 112.506H64.4531L51.6994 66.2562Z"/>
</svg>